<svg width="405" height="208" viewBox="0 0 405 208" fill="none" xmlns="http://www.w3.org/2000/svg">
<circle cx="104.449" cy="104" r="54" fill="#F36C33"/>
<path fill-rule="evenodd" clip-rule="evenodd" d="M122.062 75.9022C117.687 73.7212 112.565 73.6187 108.106 75.6228L81.2703 87.6857C79.475 88.4927 78.3202 90.2778 78.3202 92.2461V95.4274C78.3202 97.3234 79.3926 99.0563 81.0894 99.9022L102.782 110.717C104.187 111.417 105.839 111.417 107.244 110.717L129.127 99.8074C132.97 97.8915 137.487 100.687 137.487 104.981V109.056C137.487 111.248 136.247 113.252 134.285 114.23L107.592 127.537C105.968 128.347 104.058 128.347 102.434 127.537L81.6392 117.17C80.1134 116.409 78.3202 117.519 78.3202 119.224C78.3202 120.094 78.8124 120.89 79.5913 121.278L102.809 132.853C104.204 133.549 105.844 133.554 107.244 132.866L125.465 123.921C126.898 123.217 128.629 123.808 129.333 125.241C130.036 126.674 129.445 128.406 128.012 129.11L107.571 139.146C105.953 139.94 104.057 139.934 102.444 139.13L75.7411 125.818C73.7793 124.84 72.5396 122.836 72.5396 120.644V115.515C72.5396 111.221 77.0562 108.426 80.8993 110.342L102.782 121.252C104.187 121.952 105.839 121.952 107.244 121.252L130.696 109.56C131.315 109.251 131.706 108.619 131.706 107.928C131.706 106.573 130.281 105.691 129.069 106.296L107.592 117.003C105.968 117.812 104.058 117.812 102.434 117.003L75.7411 103.695C73.7793 102.717 72.5396 100.714 72.5396 98.5216V89.0117C72.5396 86.7361 73.8746 84.6722 75.9502 83.7393L105.736 70.3504C111.776 67.6355 118.715 67.7744 124.641 70.7289C135.452 76.1185 135.227 91.6208 124.264 96.6939L107.5 104.451C105.892 105.195 104.033 105.161 102.453 104.359L86.6009 96.3029C85.1779 95.5797 84.6105 93.8399 85.3336 92.4168C86.0568 90.9937 87.7966 90.4263 89.2197 91.1495L102.909 98.106C104.275 98.8 105.884 98.8296 107.274 98.1862L121.836 91.4477C128.4 88.4104 128.535 79.1291 122.062 75.9022Z" fill="white"/>
<path d="M181.045 128V81.4545H190.886V119.886H210.841V128H181.045ZM233.085 128.682C229.494 128.682 226.403 127.955 223.812 126.5C221.237 125.03 219.252 122.955 217.858 120.273C216.464 117.576 215.767 114.386 215.767 110.705C215.767 107.114 216.464 103.962 217.858 101.25C219.252 98.5379 221.214 96.4242 223.744 94.9091C226.29 93.3939 229.275 92.6364 232.699 92.6364C235.002 92.6364 237.146 93.0076 239.131 93.75C241.131 94.4773 242.873 95.5758 244.358 97.0455C245.858 98.5152 247.025 100.364 247.858 102.591C248.691 104.803 249.108 107.394 249.108 110.364V113.023H219.631V107.023H239.994C239.994 105.629 239.691 104.394 239.085 103.318C238.479 102.242 237.638 101.402 236.562 100.795C235.502 100.174 234.267 99.8636 232.858 99.8636C231.388 99.8636 230.085 100.205 228.949 100.886C227.828 101.553 226.949 102.455 226.312 103.591C225.676 104.712 225.35 105.962 225.335 107.341V113.045C225.335 114.773 225.653 116.265 226.29 117.523C226.941 118.78 227.858 119.75 229.04 120.432C230.222 121.114 231.623 121.455 233.244 121.455C234.32 121.455 235.305 121.303 236.199 121C237.093 120.697 237.858 120.242 238.494 119.636C239.131 119.03 239.616 118.288 239.949 117.409L248.903 118C248.449 120.152 247.517 122.03 246.108 123.636C244.714 125.227 242.911 126.47 240.699 127.364C238.502 128.242 235.964 128.682 233.085 128.682ZM265.381 128.659C263.153 128.659 261.169 128.273 259.426 127.5C257.684 126.712 256.305 125.553 255.29 124.023C254.29 122.477 253.79 120.553 253.79 118.25C253.79 116.311 254.146 114.682 254.858 113.364C255.57 112.045 256.54 110.985 257.767 110.182C258.994 109.379 260.388 108.773 261.949 108.364C263.525 107.955 265.176 107.667 266.903 107.5C268.934 107.288 270.57 107.091 271.812 106.909C273.055 106.712 273.956 106.424 274.517 106.045C275.078 105.667 275.358 105.106 275.358 104.364V104.227C275.358 102.788 274.903 101.674 273.994 100.886C273.1 100.098 271.828 99.7045 270.176 99.7045C268.434 99.7045 267.047 100.091 266.017 100.864C264.987 101.621 264.305 102.576 263.972 103.727L255.017 103C255.472 100.879 256.366 99.0455 257.699 97.5C259.032 95.9394 260.752 94.7424 262.858 93.9091C264.979 93.0606 267.434 92.6364 270.222 92.6364C272.161 92.6364 274.017 92.8636 275.79 93.3182C277.578 93.7727 279.161 94.4773 280.54 95.4318C281.934 96.3864 283.032 97.6136 283.835 99.1136C284.638 100.598 285.04 102.379 285.04 104.455V128H275.858V123.159H275.585C275.025 124.25 274.275 125.212 273.335 126.045C272.396 126.864 271.267 127.508 269.949 127.977C268.631 128.432 267.108 128.659 265.381 128.659ZM268.153 121.977C269.578 121.977 270.835 121.697 271.926 121.136C273.017 120.561 273.873 119.788 274.494 118.818C275.116 117.848 275.426 116.75 275.426 115.523V111.818C275.123 112.015 274.706 112.197 274.176 112.364C273.661 112.515 273.078 112.659 272.426 112.795C271.775 112.917 271.123 113.03 270.472 113.136C269.82 113.227 269.229 113.311 268.699 113.386C267.563 113.553 266.57 113.818 265.722 114.182C264.873 114.545 264.214 115.038 263.744 115.659C263.275 116.265 263.04 117.023 263.04 117.932C263.04 119.25 263.517 120.258 264.472 120.955C265.441 121.636 266.669 121.977 268.153 121.977ZM292.551 128V93.0909H301.938V99.1818H302.301C302.938 97.0152 304.006 95.3788 305.506 94.2727C307.006 93.1515 308.733 92.5909 310.688 92.5909C311.172 92.5909 311.695 92.6212 312.256 92.6818C312.816 92.7424 313.309 92.8258 313.733 92.9318V101.523C313.278 101.386 312.65 101.265 311.847 101.159C311.044 101.053 310.309 101 309.642 101C308.218 101 306.945 101.311 305.824 101.932C304.718 102.538 303.839 103.386 303.188 104.477C302.551 105.568 302.233 106.826 302.233 108.25V128H292.551ZM328.42 107.818V128H318.739V93.0909H327.966V99.25H328.375C329.148 97.2197 330.443 95.6136 332.261 94.4318C334.08 93.2348 336.284 92.6364 338.875 92.6364C341.299 92.6364 343.413 93.1667 345.216 94.2273C347.019 95.2879 348.42 96.803 349.42 98.7727C350.42 100.727 350.92 103.061 350.92 105.773V128H341.239V107.5C341.254 105.364 340.708 103.697 339.602 102.5C338.496 101.288 336.973 100.682 335.034 100.682C333.731 100.682 332.58 100.962 331.58 101.523C330.595 102.083 329.822 102.902 329.261 103.977C328.716 105.038 328.436 106.318 328.42 107.818Z" fill="black"/>
</svg>
